<?xml version="1.0" encoding="UTF-8" standalone="no"?><!DOCTYPE svg PUBLIC "-//W3C//DTD SVG 1.1//EN" "http://www.w3.org/Graphics/SVG/1.1/DTD/svg11.dtd"><svg width="100%" height="100%" viewBox="0 0 250 250" version="1.1" xmlns="http://www.w3.org/2000/svg" xmlns:xlink="http://www.w3.org/1999/xlink" xml:space="preserve" xmlns:serif="http://www.serif.com/" style="fill-rule:evenodd;clip-rule:evenodd;stroke-linejoin:round;stroke-miterlimit:2;"><g><g><path d="M143.77,245.846c-6.388,8.04 -19.343,3.64 -19.499,-6.634l-2.256,-150.205l101,0c18.293,0 28.5,21.129 17.131,35.446l-96.377,121.393Z" style="fill:#3dcfb6;fill-rule:nonzero;"/><path d="M143.77,245.846c-6.388,8.04 -19.343,3.64 -19.499,-6.634l-2.256,-150.205l101,0c18.293,0 28.5,21.129 17.131,35.446l-96.377,121.393Z" style="fill:url(#_Linear1);fill-rule:nonzero;"/><path d="M102.693,4.154c6.388,-8.041 19.343,-3.641 19.499,6.634l0.983,150.206l-99.727,0c-18.293,0 -28.5,-21.129 -17.131,-35.446l96.377,-121.393Z" style="fill:#3dcfb6;fill-rule:nonzero;"/></g></g><defs><linearGradient id="_Linear1" x1="0" y1="0" x2="1" y2="0" gradientUnits="userSpaceOnUse" gradientTransform="matrix(40.940833,77.057083,-77.057083,40.940833,118.218333,48.713333)"><stop offset="0" style="stop-color:#000;stop-opacity:0.2"/><stop offset="1" style="stop-color:#000;stop-opacity:0"/></linearGradient></defs></svg>